<svg width="1380" height="1501" viewBox="0 0 1380 1501" fill="none" xmlns="http://www.w3.org/2000/svg">
<g opacity="0.2">
<g filter="url(#filter0_f_23_316)">
<path d="M234.698 1113.12C331.304 1230.06 827.064 1022.55 834.553 1017.35C1133.93 848.456 623.822 724.985 609.928 720.125C609.816 1098.93 283.909 1010.93 234.698 1113.12Z" fill="#3B37FF"/>
<path d="M192.223 966.71C286.559 1073.58 746.141 864.657 753.021 859.566C1029.22 692.529 636.845 517.097 623.641 512.941C561.328 808.14 399.239 873.284 192.223 966.71Z" fill="#37E7FF"/>
<path d="M282.059 982.72C480.373 1009.05 653.138 809.019 656.989 723.094C603.958 522.883 544.869 204.83 531.382 538.239C516.274 911.75 -15.8429 943.171 282.059 982.72Z" fill="#FF37D3"/>
<path d="M274.136 937.812C264.926 1000.68 552.322 899.558 679.103 801.02C834.623 603.026 700.161 389.608 579.774 619.155C543.312 688.678 542.206 800.131 367.177 863.921C329.349 877.707 276.616 920.882 274.136 937.812Z" fill="white"/>
</g>
<g style="mix-blend-mode:color-dodge" filter="url(#filter1_f_23_316)">
<path d="M169.073 1078.68C277.338 1119.32 1022.88 761.765 1085.15 932.43C1542.34 674.502 763.328 485.943 742.11 478.52C764.959 354.09 135.443 642.527 169.073 1078.68Z" fill="#3B37FF"/>
<path d="M251.153 1040.42C345.49 1147.29 805.072 938.363 811.951 933.272C1088.15 766.236 695.776 590.804 682.572 586.648C620.258 881.847 458.17 946.99 251.153 1040.42Z" fill="#37E7FF"/>
<path d="M371.567 749.664C569.881 775.992 742.646 575.962 746.497 490.037C693.466 289.826 634.377 -28.2264 620.89 305.183C605.782 678.693 73.6649 710.114 371.567 749.664Z" fill="#FF37D3"/>
<path d="M318.099 919.095C308.889 981.963 596.285 880.841 723.066 782.302C878.585 584.309 744.124 370.89 623.737 600.438C587.275 669.961 586.169 781.414 411.14 845.203C373.311 858.99 320.579 902.165 318.099 919.095Z" fill="white"/>
</g>
</g>
<defs>
<filter id="filter0_f_23_316" x="91.6133" y="293.046" width="936.951" height="955.751" filterUnits="userSpaceOnUse" color-interpolation-filters="sRGB">
<feFlood flood-opacity="0" result="BackgroundImageFix"/>
<feBlend mode="normal" in="SourceGraphic" in2="BackgroundImageFix" result="shape"/>
<feGaussianBlur stdDeviation="50" result="effect1_foregroundBlur_23_316"/>
</filter>
<filter id="filter1_f_23_316" x="67.7715" y="59.9889" width="1260.95" height="1121.94" filterUnits="userSpaceOnUse" color-interpolation-filters="sRGB">
<feFlood flood-opacity="0" result="BackgroundImageFix"/>
<feBlend mode="normal" in="SourceGraphic" in2="BackgroundImageFix" result="shape"/>
<feGaussianBlur stdDeviation="50" result="effect1_foregroundBlur_23_316"/>
</filter>
</defs>
</svg>
