<svg width="652" height="637" viewBox="0 0 652 637" fill="none" xmlns="http://www.w3.org/2000/svg">
<g filter="url(#filter0_f_23_193)">
<path d="M381.313 88.8884C325.944 -22.4019 126.064 244.819 33.0447 392.341C2.17883 596.9 467.683 657.6 410.815 510.201C321.734 279.309 274.489 294.183 381.313 88.8884Z" fill="#3B37FF"/>
<path d="M266.567 1.29407e-05C308.502 83.0674 403.358 433.324 327.491 449.57C448.162 675.9 531.082 225.839 534.947 215.54C365.034 325.341 341.874 38.4085 266.567 1.29407e-05Z" fill="#EB1B1B"/>
</g>
<g style="mix-blend-mode:color-dodge" filter="url(#filter1_f_23_193)">
<path d="M510.313 101.889C454.944 -9.40149 255.064 257.82 162.045 405.341C131.179 609.9 596.683 670.6 539.815 523.201C450.734 292.309 403.489 307.183 510.313 101.889Z" fill="#3B37FF"/>
<path d="M271.751 43.0674C313.686 126.135 408.541 476.392 332.675 492.638C453.346 718.967 536.266 268.906 540.131 258.608C370.218 368.408 347.057 81.4758 271.751 43.0674Z" fill="#EB1B1B"/>
</g>
<defs>
<filter id="filter0_f_23_193" x="-68.4268" y="-100" width="703.374" height="791.621" filterUnits="userSpaceOnUse" color-interpolation-filters="sRGB">
<feFlood flood-opacity="0" result="BackgroundImageFix"/>
<feBlend mode="normal" in="SourceGraphic" in2="BackgroundImageFix" result="shape"/>
<feGaussianBlur stdDeviation="50" result="effect1_foregroundBlur_23_193"/>
</filter>
<filter id="filter1_f_23_193" x="60.5732" y="-56.9326" width="584.063" height="761.554" filterUnits="userSpaceOnUse" color-interpolation-filters="sRGB">
<feFlood flood-opacity="0" result="BackgroundImageFix"/>
<feBlend mode="normal" in="SourceGraphic" in2="BackgroundImageFix" result="shape"/>
<feGaussianBlur stdDeviation="50" result="effect1_foregroundBlur_23_193"/>
</filter>
</defs>
</svg>
