<svg width="909" height="1035" viewBox="0 0 909 1035" fill="none" xmlns="http://www.w3.org/2000/svg">
<g filter="url(#filter0_f_23_158)">
<path d="M788 354.031C613.768 248.678 77.6004 731.321 70.4156 741.226C-234.041 1087.9 575.15 942.928 594.908 942.928C303.024 725.919 770.936 505.307 788 354.031Z" fill="#3B37FF"/>
<path d="M645.808 208.898C645.554 84.5954 347.876 235.417 199.069 326.366C80.6629 496.004 470.932 756.904 485.352 599.575C507.94 353.128 646.125 364.276 645.808 208.898Z" fill="#37E7FF"/>
<path d="M605.085 248.621C609.261 108.097 269.017 298.315 98.3726 410.989C-71.644 523.056 500.778 878.385 381.504 709.125C262.23 539.865 599.866 424.276 605.085 248.621Z" fill="#FF37D3"/>
<path d="M581.589 249.346C484.589 190.846 186.089 458.846 182.089 464.346C12.589 656.846 463.089 576.346 474.089 576.346C311.589 455.846 572.089 333.346 581.589 249.346Z" fill="#EB1B1B"/>
<path d="M582.817 350.222C589.646 271.089 328.179 429.52 196.592 518.627C141.465 554.996 242.943 606.933 346.889 713.401C450.836 819.87 482.569 713.008 477.127 571.244C471.685 429.481 574.282 449.138 582.817 350.222Z" fill="#FFF500"/>
<path d="M563.675 357.766C554.585 329.971 302.194 492.87 177.135 577.794C276.999 650.121 471.304 771.5 449.61 678.393C422.492 562.009 474.69 483.777 502.404 456.264C530.117 428.751 575.038 392.51 563.675 357.766Z" fill="white"/>
</g>
<g style="mix-blend-mode:color-dodge" filter="url(#filter1_f_23_158)">
<path d="M769.396 255.649C575.993 191.998 161.555 782.474 156.771 793.736C-62.2996 1199.8 693.859 877.259 713.116 872.834C380.041 726.716 786.65 406.904 769.396 255.649Z" fill="#3B37FF"/>
<path d="M619.808 184.898C619.554 60.5954 321.876 211.417 173.069 302.366C54.6629 472.004 444.932 732.904 459.352 575.575C481.94 329.128 620.125 340.276 619.808 184.898Z" fill="#37E7FF"/>
<path d="M748.085 292.029C779.212 226.809 445.159 434.317 241.372 454.397C71.3557 566.464 643.778 921.794 524.504 752.533C405.23 583.273 672.394 450.626 748.085 292.029Z" fill="#FF37D3"/>
<path d="M547.256 150.831C438.495 119.172 218.731 454.776 216.276 461.118C101.828 690.657 516.603 497.287 527.235 494.466C339.262 419.683 559.621 234.458 547.256 150.831Z" fill="#EB1B1B"/>
<path d="M638.111 471.632C683.29 406.305 377.671 414.19 219.214 426.298C153.307 430.536 215.662 525.966 253.115 669.972C290.567 813.978 371.124 736.926 436.712 611.13C502.301 485.334 581.638 553.29 638.111 471.632Z" fill="#FFF500"/>
<path d="M613.742 377.25C605.087 349.316 350.185 508.257 223.816 591.219C322.54 665.096 514.927 789.492 494.688 696.058C469.389 579.265 522.802 501.856 550.941 474.779C579.081 447.702 624.561 412.167 613.742 377.25Z" fill="white"/>
</g>
<defs>
<filter id="filter0_f_23_158" x="-98" y="61.7888" width="986" height="1011.21" filterUnits="userSpaceOnUse" color-interpolation-filters="sRGB">
<feFlood flood-opacity="0" result="BackgroundImageFix"/>
<feBlend mode="normal" in="SourceGraphic" in2="BackgroundImageFix" result="shape"/>
<feGaussianBlur stdDeviation="50" result="effect1_foregroundBlur_23_158"/>
</filter>
<filter id="filter1_f_23_158" x="16.9854" y="37.7887" width="852.947" height="1060.69" filterUnits="userSpaceOnUse" color-interpolation-filters="sRGB">
<feFlood flood-opacity="0" result="BackgroundImageFix"/>
<feBlend mode="normal" in="SourceGraphic" in2="BackgroundImageFix" result="shape"/>
<feGaussianBlur stdDeviation="50" result="effect1_foregroundBlur_23_158"/>
</filter>
</defs>
</svg>
